<svg xmlns="http://www.w3.org/2000/svg" version="1.0" preserveAspectRatio="xMidYMid meet" viewBox="471.44 398.45 826.36 395.49">

<g transform="translate(0.000000,1240.000000) scale(0.100000,-0.100000)" fill="#000000" stroke="none">
<path d="M4952 8402 c-66 -24 -107 -62 -138 -127 -30 -63 -31 -134 -3 -195 29 -63 51 -84 159 -147 303 -177 583 -417 758 -648 130 -173 203 -363 205 -535 1 -103 -11 -144 -60 -208 -77 -101 -260 -140 -415 -87 -95 33 -184 139 -214 255 -28 110 -10 213 66 373 28 59 32 76 28 131 -5 83 -44 148 -112 191 -44 27 -58 30 -125 30 -118 -1 -174 -41 -240 -174 -138 -274 -147 -589 -23 -841 82 -167 223 -311 375 -384 116 -56 205 -77 352 -83 141 -6 260 12 377 56 147 56 311 205 387 350 66 128 84 209 85 386 0 131 -3 164 -27 258 -33 134 -93 288 -150 389 -169 295 -469 595 -851 849 -251 167 -331 197 -434 161z"/>
<path d="M6693 7476 c-33 -16 -63 -39 -82 -66 -60 -83 -64 -141 -18 -292 55 -181 61 -403 17 -634 -27 -141 -23 -192 19 -255 98 -145 319 -143 405 4 70 119 109 561 71 802 -18 117 -53 249 -87 327 -52 122 -197 173 -325 114z"/>
<path d="M8053 7352 l-53 -3 0 -490 0 -489 55 0 55 0 0 290 0 290 28 12 c15 7 59 12 98 13 58 0 76 -4 94 -20 46 -41 50 -68 50 -335 l0 -250 55 0 55 0 0 263 c-1 324 -9 354 -105 398 -50 23 -165 25 -225 4 -23 -8 -44 -15 -46 -15 -2 0 -5 75 -6 168 l-3 167 -52 -3z"/>
<path d="M7678 7218 l-38 -10 0 -79 0 -79 -40 0 c-39 0 -40 -1 -40 -34 0 -33 2 -35 38 -38 l37 -3 5 -255 c5 -267 7 -275 55 -320 21 -20 39 -25 95 -28 l70 -4 0 41 c0 32 -3 39 -15 35 -24 -10 -71 15 -84 42 -7 16 -11 106 -11 259 l0 235 58 0 58 0 -4 35 -4 35 -54 0 -54 0 0 90 c0 100 2 98 -72 78z"/>
<path d="M9500 6800 l0 -430 125 0 125 0 0 202 c0 119 4 198 9 192 5 -5 46 -96 91 -201 l82 -193 139 0 139 0 -115 230 c-63 126 -115 234 -115 239 0 5 42 85 93 178 52 92 99 178 106 191 l12 22 -128 0 -128 -1 -92 -187 -91 -187 -1 188 -1 187 -125 0 -125 0 0 -430z"/>
<path d="M8830 7051 c-14 -5 -39 -15 -56 -24 -164 -85 -194 -449 -49 -590 59 -57 132 -80 235 -74 81 5 141 18 168 35 17 11 -13 86 -31 78 -148 -62 -276 -36 -325 66 -25 51 -39 128 -24 128 15 0 363 50 391 56 23 5 24 7 18 74 -11 128 -70 218 -161 245 -53 16 -125 18 -166 6z m136 -82 c54 -26 87 -86 82 -151 l-3 -43 -145 -22 c-80 -12 -151 -20 -159 -17 -29 10 14 166 58 208 50 48 104 56 167 25z"/>
<path d="M10415 7046 c-38 -8 -82 -19 -97 -25 l-28 -11 0 -320 0 -320 115 0 115 0 2 268 3 267 47 3 c37 2 51 -1 67 -17 20 -20 21 -32 21 -271 l0 -250 120 0 120 0 0 268 c0 258 -1 268 -23 307 -25 44 -71 79 -126 96 -57 17 -256 20 -336 5z"/>
<path d="M11227 7050 c-184 -47 -276 -279 -196 -496 26 -70 79 -128 147 -161 53 -26 66 -28 177 -28 124 0 230 22 241 48 8 21 -43 142 -58 138 -165 -48 -253 -37 -290 38 -10 19 -16 36 -15 37 2 3 364 54 379 54 14 0 9 133 -7 186 -35 119 -126 185 -264 190 -42 2 -93 -1 -114 -6z m150 -169 c25 -37 32 -111 11 -112 -7 0 -48 -6 -91 -13 -42 -7 -79 -10 -82 -8 -8 8 -6 44 6 86 25 90 110 116 156 47z"/>
<path d="M11937 7050 c-184 -47 -276 -279 -196 -496 26 -70 79 -128 147 -161 53 -26 66 -28 177 -28 124 0 230 22 241 48 8 21 -43 142 -58 138 -165 -48 -253 -37 -290 38 -10 19 -16 36 -15 37 2 3 364 54 379 54 14 0 9 133 -7 186 -35 119 -126 185 -264 190 -42 2 -93 -1 -114 -6z m150 -169 c25 -37 32 -111 11 -112 -7 0 -48 -6 -91 -13 -42 -7 -79 -10 -82 -8 -8 8 -6 44 6 86 25 90 110 116 156 47z"/>
<path d="M12262 6258 c-32 -32 8 -80 48 -58 34 18 19 70 -20 70 -9 0 -21 -5 -28 -12z"/>
<path d="M12483 6220 c-19 -8 -23 -17 -23 -55 0 -41 -2 -45 -25 -45 -20 0 -25 -5 -25 -23 0 -18 5 -23 23 -23 22 1 22 -1 27 -162 5 -157 6 -165 29 -183 14 -11 39 -19 62 -19 35 0 39 3 39 25 0 18 -5 25 -19 25 -45 0 -52 22 -49 173 l3 142 33 0 c27 0 32 4 32 22 0 20 -5 23 -35 23 l-35 0 0 55 c0 58 -1 59 -37 45z"/>
<path d="M9617 6116 c-21 -8 -47 -22 -57 -31 -32 -29 -53 -108 -48 -188 4 -86 30 -143 77 -171 55 -32 161 -23 161 14 0 26 -12 31 -47 21 -76 -22 -123 40 -123 161 0 114 51 177 122 150 17 -6 35 -9 39 -6 16 9 9 43 -8 48 -50 14 -82 14 -116 2z"/>
<path d="M9916 6120 c-70 -22 -105 -89 -106 -205 0 -91 24 -153 72 -188 37 -27 129 -27 166 0 47 34 72 97 72 184 0 88 -13 133 -48 172 -38 40 -97 54 -156 37z m102 -63 c43 -46 52 -196 14 -261 -36 -62 -110 -56 -139 11 -22 51 -21 178 1 220 29 56 86 70 124 30z"/>
<path d="M10300 6124 c-14 -3 -40 -10 -57 -15 l-33 -11 0 -194 0 -194 35 0 35 0 0 179 c0 199 -3 191 71 191 29 0 47 -7 64 -25 24 -24 25 -28 25 -185 l0 -160 35 0 35 0 0 170 0 169 30 16 c42 22 77 19 105 -10 24 -24 25 -28 25 -185 l0 -160 30 0 30 0 0 174 c0 167 -1 176 -22 201 -41 47 -149 54 -208 12 -21 -14 -25 -14 -49 3 -27 20 -106 32 -151 24z"/>
<path d="M10930 6124 c-14 -3 -40 -10 -57 -15 l-33 -11 0 -194 0 -194 35 0 35 0 0 179 c0 199 -3 191 71 191 29 0 47 -7 64 -25 24 -24 25 -28 25 -185 l0 -160 35 0 35 0 0 170 0 169 30 16 c42 22 77 19 105 -10 24 -24 25 -28 25 -185 l0 -160 30 0 30 0 0 174 c0 167 -1 176 -22 201 -41 47 -149 54 -208 12 -21 -14 -25 -14 -49 3 -27 20 -106 32 -151 24z"/>
<path d="M11940 6124 c-14 -3 -40 -10 -57 -15 l-33 -11 0 -194 0 -194 35 0 35 0 0 179 c0 177 0 179 23 185 48 13 88 6 112 -19 24 -24 25 -28 25 -185 l0 -160 35 0 35 0 0 158 c0 215 -16 244 -135 255 -27 3 -61 3 -75 1z"/>
<path d="M11460 5965 c0 -172 9 -211 55 -241 33 -22 142 -25 198 -5 l37 13 0 194 0 194 -35 0 -35 0 -2 -177 -3 -177 -32 -9 c-42 -12 -91 7 -104 40 -5 13 -9 92 -9 174 l0 149 -35 0 -35 0 0 -155z"/>
<path d="M12260 5915 l0 -205 30 0 30 0 0 205 0 205 -30 0 -30 0 0 -205z"/>
<path d="M12652 6108 c3 -7 34 -99 68 -204 l63 -191 -27 -69 c-16 -38 -31 -75 -33 -82 -4 -10 4 -13 32 -10 l38 3 59 175 c32 96 74 223 92 283 l34 107 -32 0 c-32 0 -33 -1 -60 -92 -15 -51 -37 -124 -48 -162 l-21 -70 -46 160 -46 159 -39 3 c-29 3 -37 0 -34 -10z"/>
<path d="M6165 5866 c-16 -7 -65 -29 -107 -49 -130 -63 -241 -88 -409 -94 -175 -6 -258 7 -424 70 -103 39 -117 42 -210 42 -114 0 -152 -15 -217 -82 -128 -132 -110 -317 61 -624 118 -213 350 -542 429 -610 94 -81 228 -77 316 8 50 49 67 85 73 153 7 78 -8 116 -84 217 -82 107 -244 345 -239 350 2 2 61 -1 130 -8 259 -25 542 27 795 147 155 73 207 144 199 270 -5 75 -26 119 -82 167 -60 52 -162 71 -231 43z"/>
</g>
</svg>